<svg width="32" height="32" viewBox="0 0 32 32" fill="none" xmlns="http://www.w3.org/2000/svg">
<g id="icn-image">
<path id="Vector" d="M28 20.0002L23.8853 15.8856C23.3853 15.3857 22.7071 15.1048 22 15.1048C21.2929 15.1048 20.6147 15.3857 20.1147 15.8856L8 28.0002M6.66667 4.00024H25.3333C26.8061 4.00024 28 5.19415 28 6.66691V25.3336C28 26.8063 26.8061 28.0002 25.3333 28.0002H6.66667C5.19391 28.0002 4 26.8063 4 25.3336V6.66691C4 5.19415 5.19391 4.00024 6.66667 4.00024ZM14.6667 12.0002C14.6667 13.473 13.4728 14.6669 12 14.6669C10.5272 14.6669 9.33333 13.473 9.33333 12.0002C9.33333 10.5275 10.5272 9.33358 12 9.33358C13.4728 9.33358 14.6667 10.5275 14.6667 12.0002Z" stroke="#EDE3F7" stroke-width="2.67" stroke-linecap="round" stroke-linejoin="round"/>
</g>
</svg>
